<svg xmlns="http://www.w3.org/2000/svg" width="128" height="128" xmlns:xlink="http://www.w3.org/1999/xlink">
  <defs>
    <linearGradient id="b" x1="31.92" y1="-11.43" x2="95.93" y2="99.43" gradientTransform="translate(0 108) scale(1 -1)" gradientUnits="userSpaceOnUse">
      <stop offset="0" stop-color="#000"/>
      <stop offset="1" stop-color="#8000ff"/>
    </linearGradient>
    <linearGradient id="c" data-name="bits-chatbot-visor-blue" x1="55.44" y1="42.77" x2="99.52" y2="68.22" gradientTransform="translate(0 108) scale(1 -1)" gradientUnits="userSpaceOnUse">
      <stop offset="0" stop-color="#0061ff"/>
      <stop offset="1" stop-color="#00cfff"/>
    </linearGradient>
  </defs>
  <circle cx="63.93" cy="64" r="64" fill="url(#b)" stroke-width="0"/>
  <path d="m63.93,122.02c-12.13,0-23.39-3.73-32.69-10.09,5.13-4.51,9.9-9.59,9.36-15.27-.36-3.91-.99-9.01-4.63-12.51-6.62-6.41-8.27-10.13-8.27-10.13-.73-2.13-2.87-6.36-2.27-15.97,1.53,1.07,3.75,1.63,6.11,1.63,3.77,0,7.89-1.43,9.98-4.52,1.13-1.66,1.9-6.19-.57-15.11-1.58-5.72-5.5-14.24-7.03-17.47l-.18.13c.81,2.61,2.47,8.06,3.1,10.71,1.93,8.03,2.45,10.82,1.54,14.52-.77,3.22-2.61,5.32-7.3,7.67-.79.4-1.63.57-2.48.57-4.15,0-8.49-4.01-8.81-4.27-4.55-3.63-8.07-9.53-8.46-12.41-.41-3.14,1.76-5.47,2.93-7.6,6.55-9.18,13.83-12.35,13.83-12.35,1.23-.51,2.46-.77,3.61-.77,1.97,0,3.71.78,4.87,2.46,2.42,3.49,4.96,5.38,10.34,6.56,3.31-1.47,4.31-2.21,8.47-3.35,0,0,3.49-1.5,11.49-1.33,1.93.04,5.19.09,6.51.25h.25c8.26,0,10.01-9.06,13.23-10.21,1.54-.55,2.76-1.02,4.05-1.02,2.13,0,4.46,1.27,8.77,5.5,5.95,5.85,10.61,16.32,8.29,18.66-.42.42-.93.63-1.51.63h-.28c-2.09-.21-5.03-2.71-8.2-6.67-2.24-2.79-3.93-6.1-4.72-10.29-.67-3.54-3.27-5.6-3.27-5.6,0,0,1.51,3.37,1.51,6.33,0,1.62.2,7.67,2.8,11.07-.26.49-.38,2.45-.66,2.83-3.02-3.65-9.51-6.27-10.57-7.03,2.4,1.97,6.89,5.65,10.55,9.81-4.49-.53-10.07-.72-16.98-.03-5.45.55-16.98,3.09-23.55,6.25-3.59,1.72-10.26,4.93-9.55,12.92,0,.02,0,.04,0,.07l.44,3.19c.49,3.58,2.26,6.67,4.86,8.47,1.67,1.16,3.61,1.75,5.69,1.75.86,0,1.75-.1,2.65-.3,2.63-.59,5.87-1.99,9.62-3.63,5.89-2.55,13.21-5.73,21.36-7.12,2.45-.41,4.8-.68,7.05-.83,2.36-.09,4.59-.05,6.67.08,1.89,2.41,5.6,7.44,6.48,10.31,2.01,6.55.12,13.43-2.52,17.69-.66,1.07-2.07,1.82-4.09,1.82-1.37,0-3.01-.34-4.91-1.15-.36-.13-.71-.29-1.11-.51h0s-.01,0-.01,0h.02c.19-.36.41-.8.61-1.25.43-.93.87-1.98.96-2.41,0-.05.01-.08.01-.11l-.42-.73c-.15.22-.32.44-.49.66-.05.07-.1.13-.15.19-.13.16-.25.31-.38.47-.06.07-.12.14-.17.21-.13.15-.27.31-.41.46-.05.06-.11.12-.17.19-.15.17-.31.33-.47.5-.04.05-.09.09-.13.13-.2.2-.4.4-.6.6,0,0-.01.01-.01.01-.67.65-1.39,1.28-2.11,1.87h0c-1.41,1.15-2.87,2.15-4.23,2.92-2.35,1.33-4.84,1.82-7.13,1.82-1.77,0-3.43-.29-4.8-.72-8.9-2.75-17.49-8.81-19.52-10.39,0,0,.01,1.17.32,1.55,2.21,2.69,12.47,10.55,18.56,12.33,1.83.53,3.7.88,5.63.88,2.56,0,5.23-.61,8.08-2.19,2.56-1.42,4.54-3.57,5.68-5.03.79.49,1.85,1.1,2.91,1.55.65.28,1.42.57,2.01.78-.34.89-.89,2.05-1.71,3.21-1.12,1.59-3.89,4.02-6.51,4.93-1.68.58-3.64.99-6.33.99s-6.42-.45-11.31-1.62c-.02,0-.03,0-.05,0-.19,0-.27.27-.07.36,5.99,2.57,10.99,3.6,14.74,3.6,2.05,0,3.73-.31,4.99-.84,1.71-.72,3.03-1.79,4.05-2.98,2.51,1.04,6.63,2.94,9.33,5.12-10.61,11.39-25.75,18.56-42.57,18.56Zm24.63-47.07c3.03,2.26,5.72,3.85,8.5,3.85.31,0,.63-.02.94-.06,1.91-.25,3.6-3.28,4.79-6.03.82-1.89.82-3.93-.38-4.6-.26-.15-.93-.2-1.77-.2-1.11,0-2.51.1-3.64.23-3.78.45-7.85,1.76-8.75,2.45-1.63,1.26-.89,3.45.31,4.35Z" fill="#fff" stroke-width="0"/>
  <path d="m101.98,44.06c-.61-.99-1.33-1.96-2.15-2.93-5.07-1.13-12.4-2.2-22.91-1.14-4.19.42-11.94,2.06-18.03,4.15-5.13,2.16-7.55,5.35-7.4,9.77l.25,2.95c.23,2.64,1.37,4.94,3.13,6.31,1.54,1.19,3.51,1.63,5.71,1.25,2.23-.38,5.2-1.49,8.65-2.77,5.72-2.14,12.83-4.79,20.78-5.72,1.68-.19,3.31-.32,4.89-.39,3.93-.27,7.53-.21,10.68.03-.62-3.38-1.39-7.91-3.59-11.51Zm-37.21,14.69c-2.21,0-4.01,1.8-4.01,4.01h-1.01c0-2.21-1.8-4.01-4.01-4.01v-1.01c2.21,0,4.01-1.8,4.01-4.01h1c0,2.21,1.8,4.01,4.01,4.01v1.01h0Zm11.05-8.03c-3.87,0-7.03,3.15-7.03,7.03h-1.01c0-3.87-3.15-7.03-7.03-7.03v-1.01c3.87,0,7.03-3.15,7.03-7.03h1.01c0,3.87,3.15,7.03,7.03,7.03v1.01Z" fill="url(#c)" stroke-width="0"/>
  <path d="m64.77,58.75c-2.21,0-4.01,1.8-4.01,4.01h-1.01c0-2.21-1.8-4.01-4.01-4.01v-1.01c2.21,0,4.01-1.8,4.01-4.01h1c0,2.21,1.8,4.01,4.01,4.01v1.01h0Zm11.05-8.03c-3.87,0-7.03,3.15-7.03,7.03h-1.01c0-3.87-3.15-7.03-7.03-7.03v-1.01c3.87,0,7.03-3.15,7.03-7.03h1.01c0,3.87,3.15,7.03,7.03,7.03v1.01Z" fill="#fff" stroke-width="0"/>
</svg>